<svg xmlns="http://www.w3.org/2000/svg" width="32" height="32" viewBox="0 0 32 32">
  <path d="M2.14383875,18.3943756 L0.51672011,16.8088383 C-0.172240037,16.1374847 -0.172240037,15.0518915 0.51672011,14.3876799 L14.7576729,0.503515233 C15.4466331,-0.167838411 16.5606963,-0.167838411 17.2423271,0.503515233 L31.4832799,14.3805379 C32.17224,15.0518915 32.17224,16.1374847 31.4832799,16.8016962 L29.8561612,18.3872336 C29.1598717,19.0657293 28.0238204,19.0514452 27.3421896,18.3586653 L18.93541,9.75962504 L18.93541,30.2859056 C18.93541,31.2357996 18.1511681,32 17.1763628,32 L14.8309666,32 C13.8561612,32 13.0719194,31.2357996 13.0719194,30.2859056 L13.0719194,9.75962504 L4.65781035,18.3658074 C3.97617957,19.0657293 2.84012826,19.0800134 2.14383875,18.3943756 Z"/>
</svg>
