<svg xmlns="http://www.w3.org/2000/svg" width="32" height="32" viewBox="0 0 32 32">
  <path d="M1.14285714,5.87755102 L30.8571429,5.87755102 C31.4883571,5.87755102 32,5.29281633 32,4.57142857 L32,1.30612245 C32,0.584734694 31.4883571,0 30.8571429,0 L1.14285714,0 C0.511642857,0 0,0.584734694 0,1.30612245 L0,4.57142857 C0,5.29281633 0.511642857,5.87755102 1.14285714,5.87755102 Z M1.14285714,18.9387755 L30.8571429,18.9387755 C31.4883571,18.9387755 32,18.3540408 32,17.6326531 L32,14.3673469 C32,13.6459592 31.4883571,13.0612245 30.8571429,13.0612245 L1.14285714,13.0612245 C0.511642857,13.0612245 0,13.6459592 0,14.3673469 L0,17.6326531 C0,18.3540408 0.511642857,18.9387755 1.14285714,18.9387755 Z M1.14285714,32 L30.8571429,32 C31.4883571,32 32,31.4152653 32,30.6938776 L32,27.4285714 C32,26.7071837 31.4883571,26.122449 30.8571429,26.122449 L1.14285714,26.122449 C0.511642857,26.122449 0,26.7071837 0,27.4285714 L0,30.6938776 C0,31.4152653 0.511642857,32 1.14285714,32 Z"/>
</svg>
