<svg xmlns="http://www.w3.org/2000/svg" width="32" height="32" viewBox="0 0 32 32">
  <path d="M28.5714286,0 L3.42857143,0 C1.535,0 0,1.535 0,3.42857143 L0,28.5714286 C0,30.465 1.535,32 3.42857143,32 L28.5714286,32 C30.465,32 32,30.465 32,28.5714286 L32,3.42857143 C32,1.535 30.465,0 28.5714286,0 Z M12.7226429,16.436 C6.24492857,11.7347857 6.31092857,11.7229286 4.57142857,10.3690714 L4.57142857,8.57142857 C4.57142857,7.62464286 5.33892857,6.85714286 6.28571429,6.85714286 L25.7142857,6.85714286 C26.6610714,6.85714286 27.4285714,7.62464286 27.4285714,8.57142857 L27.4285714,10.3690714 C25.6877857,11.724 25.7547143,11.7350714 19.2773571,16.4360714 C18.5273571,16.9828571 17.0350714,18.3017857 16,18.2856429 C14.9640714,18.3012143 13.4737857,16.9837143 12.7226429,16.436 Z M27.4285714,13.2696429 L27.4285714,23.4285714 C27.4285714,24.3753571 26.6610714,25.1428571 25.7142857,25.1428571 L6.28571429,25.1428571 C5.33892857,25.1428571 4.57142857,24.3753571 4.57142857,23.4285714 L4.57142857,13.2696429 C5.56842857,14.0406429 6.95207143,15.0722143 11.3787857,18.2849286 C12.3903571,19.0235714 14.0912857,20.581 15.9997857,20.5713571 C17.9202857,20.5809286 19.6452857,18.997 20.6226429,18.2838571 C25.0482143,15.0720714 26.4315714,14.0405714 27.4285714,13.2696429 Z"/>
</svg>
