<svg xmlns="http://www.w3.org/2000/svg" width="32" height="32" viewBox="0 0 32 32">
  <path d="M16,0 C7.16129032,0 0,7.16129032 0,16 C0,24.8387097 7.16129032,32 16,32 C24.8387097,32 32,24.8387097 32,16 C32,7.16129032 24.8387097,0 16,0 Z M16,28.9032258 C8.88387097,28.9032258 3.09677419,23.116129 3.09677419,16 C3.09677419,8.88387097 8.88387097,3.09677419 16,3.09677419 C23.116129,3.09677419 28.9032258,8.88387097 28.9032258,16 C28.9032258,23.116129 23.116129,28.9032258 16,28.9032258 Z M12.9032258,12.9032258 C12.9032258,11.7612903 11.9806452,10.8387097 10.8387097,10.8387097 C9.69677419,10.8387097 8.77419355,11.7612903 8.77419355,12.9032258 C8.77419355,14.0451613 9.69677419,14.9677419 10.8387097,14.9677419 C11.9806452,14.9677419 12.9032258,14.0451613 12.9032258,12.9032258 Z M21.1612903,10.8387097 C20.0193548,10.8387097 19.0967742,11.7612903 19.0967742,12.9032258 C19.0967742,14.0451613 20.0193548,14.9677419 21.1612903,14.9677419 C22.3032258,14.9677419 23.2258065,14.0451613 23.2258065,12.9032258 C23.2258065,11.7612903 22.3032258,10.8387097 21.1612903,10.8387097 Z M16,18.0645161 C13.7032258,18.0645161 10.2709677,19.4387097 9.81935484,22.0129032 C9.69032258,22.7741935 10.4,23.4 11.1419355,23.1806452 C13.1548387,22.5612903 14.9741935,22.1935484 16,22.1935484 C17.0258065,22.1935484 18.8451613,22.5612903 20.8580645,23.1806452 C21.5935484,23.4064516 22.3096774,22.7741935 22.1806452,22.0129032 C21.7290323,19.4387097 18.2967742,18.0645161 16,18.0645161 Z"/>
</svg>
