<svg xmlns="http://www.w3.org/2000/svg" width="32" height="32" viewBox="0 0 32 32">
  <path d="M16,0 C7.16129032,0 0,7.16129032 0,16 C0,24.8387097 7.16129032,32 16,32 C24.8387097,32 32,24.8387097 32,16 C32,7.16129032 24.8387097,0 16,0 Z M16,28.9032258 C8.88387097,28.9032258 3.09677419,23.116129 3.09677419,16 C3.09677419,8.88387097 8.88387097,3.09677419 16,3.09677419 C23.116129,3.09677419 28.9032258,8.88387097 28.9032258,16 C28.9032258,23.116129 23.116129,28.9032258 16,28.9032258 Z M10.8387097,14.9677419 C11.9806452,14.9677419 12.9032258,14.0451613 12.9032258,12.9032258 C12.9032258,11.7612903 11.9806452,10.8387097 10.8387097,10.8387097 C9.69677419,10.8387097 8.77419355,11.7612903 8.77419355,12.9032258 C8.77419355,14.0451613 9.69677419,14.9677419 10.8387097,14.9677419 Z M21.1612903,10.8387097 C20.0193548,10.8387097 19.0967742,11.7612903 19.0967742,12.9032258 C19.0967742,14.0451613 20.0193548,14.9677419 21.1612903,14.9677419 C22.3032258,14.9677419 23.2258065,14.0451613 23.2258065,12.9032258 C23.2258065,11.7612903 22.3032258,10.8387097 21.1612903,10.8387097 Z M16,19.0967742 C13.4064516,19.0967742 10.9677419,20.2387097 9.30322581,22.2322581 C8.75483871,22.8903226 8.84516129,23.8645161 9.50322581,24.4129032 C10.1612903,24.9612903 11.1354839,24.8709677 11.683871,24.2129032 C12.7548387,22.9290323 14.3290323,22.1870968 16,22.1870968 C17.6709677,22.1870968 19.2451613,22.9225806 20.316129,24.2129032 C20.6258065,24.5806452 21.0645161,24.7677419 21.5096774,24.7677419 C21.8580645,24.7677419 22.2129032,24.6516129 22.5032258,24.4064516 C23.1612903,23.8580645 23.2451613,22.883871 22.7032258,22.2258065 C21.0322581,20.2387097 18.5935484,19.0967742 16,19.0967742 Z"/>
</svg>
