<svg xmlns="http://www.w3.org/2000/svg" width="32" height="32" viewBox="0 0 32 32">
  <path d="M28.5714286,0 L3.42857143,0 C1.53571429,0 0,1.53571429 0,3.42857143 L0,28.5714286 C0,30.4642857 1.53571429,32 3.42857143,32 L28.5714286,32 C30.4642857,32 32,30.4642857 32,28.5714286 L32,3.42857143 C32,1.53571429 30.4642857,0 28.5714286,0 Z M19.8071429,27.4071429 C19.2071429,27.5142857 18.9857143,27.1428571 18.9857143,26.8357143 C18.9857143,26.45 19,24.4785714 19,22.8857143 C19,21.7714286 18.6285714,21.0642857 18.1928571,20.6928571 C20.8357143,20.4 23.6214286,20.0357143 23.6214286,15.4714286 C23.6214286,14.1714286 23.1571429,13.5214286 22.4,12.6857143 C22.5214286,12.3785714 22.9285714,11.1142857 22.2785714,9.47142857 C21.2857143,9.16428571 19.0142857,10.75 19.0142857,10.75 C18.0714286,10.4857143 17.05,10.35 16.0428571,10.35 C15.0357143,10.35 14.0142857,10.4857143 13.0714286,10.75 C13.0714286,10.75 10.8,9.16428571 9.80714286,9.47142857 C9.15714286,11.1071429 9.55714286,12.3714286 9.68571429,12.6857143 C8.92857143,13.5214286 8.57142857,14.1714286 8.57142857,15.4714286 C8.57142857,20.0142857 11.2357143,20.4 13.8785714,20.6928571 C13.5357143,21 13.2285714,21.5285714 13.1214286,22.2857143 C12.4428571,22.5928571 10.7071429,23.1214286 9.67142857,21.2928571 C9.02142857,20.1642857 7.85,20.0714286 7.85,20.0714286 C6.69285714,20.0571429 7.77142857,20.8 7.77142857,20.8 C8.54285714,21.1571429 9.08571429,22.5285714 9.08571429,22.5285714 C9.77857143,24.65 13.0928571,23.9357143 13.0928571,23.9357143 C13.0928571,24.9285714 13.1071429,26.5428571 13.1071429,26.8357143 C13.1071429,27.1428571 12.8928571,27.5142857 12.2857143,27.4071429 C7.57142857,25.8285714 4.27142857,21.3428571 4.27142857,16.1 C4.27142857,9.54285714 9.28571429,4.56428571 15.8428571,4.56428571 C22.4,4.56428571 27.7142857,9.54285714 27.7142857,16.1 C27.7214286,21.3428571 24.5214286,25.8357143 19.8071429,27.4071429 Z M12.8,23.0428571 C12.6642857,23.0714286 12.5357143,23.0142857 12.5214286,22.9214286 C12.5071429,22.8142857 12.6,22.7214286 12.7357143,22.6928571 C12.8714286,22.6785714 13,22.7357143 13.0142857,22.8285714 C13.0357143,22.9214286 12.9428571,23.0142857 12.8,23.0428571 Z M12.1214286,22.9785714 C12.1214286,23.0714286 12.0142857,23.15 11.8714286,23.15 C11.7142857,23.1642857 11.6071429,23.0857143 11.6071429,22.9785714 C11.6071429,22.8857143 11.7142857,22.8071429 11.8571429,22.8071429 C11.9928571,22.7928571 12.1214286,22.8714286 12.1214286,22.9785714 Z M11.1428571,22.9 C11.1142857,22.9928571 10.9714286,23.0357143 10.85,22.9928571 C10.7142857,22.9642857 10.6214286,22.8571429 10.65,22.7642857 C10.6785714,22.6714286 10.8214286,22.6285714 10.9428571,22.6571429 C11.0857143,22.7 11.1785714,22.8071429 11.1428571,22.9 Z M10.2642857,22.5142857 C10.2,22.5928571 10.0642857,22.5785714 9.95714286,22.4714286 C9.85,22.3785714 9.82142857,22.2428571 9.89285714,22.1785714 C9.95714286,22.1 10.0928571,22.1142857 10.2,22.2214286 C10.2928571,22.3142857 10.3285714,22.4571429 10.2642857,22.5142857 Z M9.61428571,21.8642857 C9.55,21.9071429 9.42857143,21.8642857 9.35,21.7571429 C9.27142857,21.65 9.27142857,21.5285714 9.35,21.4785714 C9.42857143,21.4142857 9.55,21.4642857 9.61428571,21.5714286 C9.69285714,21.6785714 9.69285714,21.8071429 9.61428571,21.8642857 Z M9.15,21.1714286 C9.08571429,21.2357143 8.97857143,21.2 8.9,21.1285714 C8.82142857,21.0357143 8.80714286,20.9285714 8.87142857,20.8785714 C8.93571429,20.8142857 9.04285714,20.85 9.12142857,20.9214286 C9.2,21.0142857 9.21428571,21.1214286 9.15,21.1714286 Z M8.67142857,20.6428571 C8.64285714,20.7071429 8.55,20.7214286 8.47142857,20.6714286 C8.37857143,20.6285714 8.33571429,20.55 8.36428571,20.4857143 C8.39285714,20.4428571 8.47142857,20.4214286 8.56428571,20.4571429 C8.65714286,20.5071429 8.7,20.5857143 8.67142857,20.6428571 Z"/>
</svg>
