<svg xmlns="http://www.w3.org/2000/svg" width="32" height="32" viewBox="0 0 32 32">
  <path d="M28.5714286,0 L3.42857143,0 C1.535,0 0,1.535 0,3.42857143 L0,28.5714286 C0,30.465 1.535,32 3.42857143,32 L28.5714286,32 C30.465,32 32,30.465 32,28.5714286 L32,3.42857143 C32,1.535 30.465,0 28.5714286,0 Z M8,27.4285714 C6.10642857,27.4285714 4.57142857,25.8935714 4.57142857,24 C4.57142857,22.1064286 6.10642857,20.5714286 8,20.5714286 C9.89357143,20.5714286 11.4285714,22.1064286 11.4285714,24 C11.4285714,25.8935714 9.89357143,27.4285714 8,27.4285714 Z M19.2523571,27.4285714 L16.7998571,27.4285714 C16.3705,27.4285714 16.0105,27.0974286 15.9825714,26.669 C15.6101429,20.9511429 11.0366429,16.389 5.33092857,16.0173571 C4.90257143,15.9895 4.57142857,15.6294286 4.57142857,15.2001429 L4.57142857,12.7476429 C4.57142857,12.2808571 4.962,11.9064286 5.42814286,11.9315714 C13.3242857,12.3582857 19.6422143,18.6841429 20.0684286,26.5718571 C20.0935714,27.038 19.7191429,27.4285714 19.2523571,27.4285714 Z M26.6114286,27.4285714 L24.159,27.4285714 C23.7189286,27.4285714 23.3607857,27.0798571 23.3427857,26.6401429 C22.9429286,16.8876429 15.1139286,9.05721429 5.35992857,8.65728571 C4.92014286,8.63921429 4.57142857,8.28107143 4.57142857,7.841 L4.57142857,5.38857143 C4.57142857,4.92757143 4.95271429,4.55542857 5.41335714,4.572 C17.4012143,5.00235714 26.9997857,14.6570714 27.428,26.5866429 C27.4445714,27.0472857 27.0724286,27.4285714 26.6114286,27.4285714 Z"/>
</svg>
